<?xml version="1.0" encoding="UTF-8" standalone="no"?>
<!-- Created with Inkscape (http://www.inkscape.org/) -->

<svg
   width="390.39264"
   height="474.21808"
   viewBox="0 0 390.39264 474.21808"
   version="1.1"
   id="svg5"
   xml:space="preserve"
   inkscape:export-filename="cardak-logo-filled.svg"
   inkscape:export-xdpi="96"
   inkscape:export-ydpi="96"
   xmlns:inkscape="http://www.inkscape.org/namespaces/inkscape"
   xmlns:sodipodi="http://sodipodi.sourceforge.net/DTD/sodipodi-0.dtd"
   xmlns="http://www.w3.org/2000/svg"
   xmlns:svg="http://www.w3.org/2000/svg"><sodipodi:namedview
     id="namedview7"
     pagecolor="#ffffff"
     bordercolor="#666666"
     borderopacity="1.0"
     inkscape:showpageshadow="2"
     inkscape:pageopacity="0.0"
     inkscape:pagecheckerboard="0"
     inkscape:deskcolor="#d1d1d1"
     inkscape:document-units="px"
     showgrid="false"
     showguides="true"><sodipodi:guide
       position="4.5368394,194.33815"
       orientation="1,0"
       id="guide781"
       inkscape:locked="false" /><sodipodi:guide
       position="392.84637,186.24837"
       orientation="1,0"
       id="guide783"
       inkscape:locked="false" /></sodipodi:namedview><defs
     id="defs2" /><g
     inkscape:label="Layer 1"
     inkscape:groupmode="layer"
     id="layer1"
     transform="translate(-764.80133,-241.10197)"><g
       id="g1405"
       transform="translate(-4.3668223,65.627361)"
       inkscape:export-filename="./g1405.svg"
       inkscape:export-xdpi="96"
       inkscape:export-ydpi="96"><g
         id="g577"
         transform="matrix(0.80583007,0,0,0.80583007,771.8001,114.23237)"
         style="fill:#000000">
		<g
   id="g575"
   style="fill:#000000">
			
			
			
			
			
			<path
   id="path569"
   style="fill:#000000"
   d="m 415.99998,75.99895 c -3.272,0 -6.2072,1.994129 -7.4312,5.034114 L 392.56723,121.0321 c -0.376,0.94395 -0.56716,1.95308 -0.56716,2.96908 v 47.99981 c 0,4.42395 3.58478,7.99835 8.00078,7.99835 h 3.99918 c 11.0239,0 20.00072,8.96878 20.00072,20.00073 0,11.03195 -8.97682,20.00072 -20.00072,20.00072 h -3.99918 c -13.23195,0 -23.9999,10.76796 -23.9999,23.99991 v 15.99912 c 0,2.128 0.83976,4.16102 2.34376,5.65702 l 10.34211,10.34211 -10.34211,10.34454 c -1.504,1.496 -2.34376,3.52906 -2.34376,5.65701 v 6.38414 l -43.56194,-29.04129 c -1.312,-0.872 -2.86187,-1.34275 -4.43787,-1.34275 H 144.8001 L 296.3519,107.60698 c 2.976,-3.15195 2.90399,-8.087654 -0.15996,-11.151639 L 284.88033,85.143733 c -5.896,-5.887975 -14.59344,-8.328383 -22.68139,-6.328393 l -87.64012,21.52041 c -10.93595,2.68 -20.83852,7.3036 -29.57452,11.3916 -3.21595,1.50395 -6.26362,2.92763 -9.10357,4.12763 -1.008,0.424 -1.92866,1.05009 -2.68066,1.84204 L 2.2234177,254.47127 c -1.42399265,1.48 -2.22257229844,3.4646 -2.22257229844,5.52855 v 32.00068 c 0,11.10395 7.61503859844,20.37512 17.86298559844,23.10312 -6.667477,6.22463 -11.8043361,14.05427 -14.8284593,22.85347 5.4920319,0.17307 11.2180873,0.44846 16.9080313,0.84104 6.448004,-13.45798 20.163292,-22.79772 36.055601,-22.79772 H 424.00075 c 14.62161,0 27.39853,7.90958 34.37595,19.65171 0.004,-1e-5 0.008,0 0.0121,0 3.50197,0.40114 6.81737,1.96025 10.30818,2.36072 1.08906,0.12492 2.60837,-0.0257 3.68651,-0.0969 1.49892,-0.16728 3.00605,-0.15689 4.51059,-0.20602 -2.14232,-6.15573 -5.30919,-11.83531 -9.32657,-16.8135 7.376,-4.096 12.43138,-11.88156 12.43138,-20.89751 V 139.84034 c 0,-11.03995 -1.09436,-22.12926 -3.26236,-32.95321 l -4.89596,-24.462837 c -0.744,-3.73598 -4.02481,-6.425343 -7.84081,-6.425343 z m 23.9999,48.00223 c 4.416,0 8.00078,3.57436 8.00078,7.99835 v 16.00155 c 0,4.424 -3.58478,7.99836 -8.00078,7.99836 -4.416,0 -8.00078,-3.57436 -8.00078,-7.99836 v -16.00155 c 0,-4.42399 3.58478,-7.99835 8.00078,-7.99835 z m -284.60075,27.79791 c 2.046,0 4.09303,0.77976 5.65701,2.34376 3.128,3.128 3.128,8.18603 0,11.31403 l -39.59911,39.59911 c -1.56,1.56 -3.60903,2.34376 -5.65701,2.34376 -2.048,0 -4.09702,-0.78376 -5.65702,-2.34376 -3.128,-3.12798 -3.128,-8.18362 0,-11.3116 l 39.60154,-39.60154 c 1.56398,-1.564 3.60859,-2.34376 5.65459,-2.34376 z m -24.08716,132.20064 h 194.263 l 23.99991,15.99913 H 115.31284 Z M 1.4599387,347.95261 c 0.086324,0.0128 0.1819193,0.0442 0.264188,0.0485 1.418482,0.0736 2.8198526,0.21963 4.2173128,0.39507 0.028207,-0.005 0.056624,-0.007 0.084831,-0.0121 0.219279,-0.052 0.5608241,-0.13708 0.782869,-0.19148 -1.7696041,-0.0735 -3.6707354,-0.18492 -5.3492008,-0.23995 z" />
			
			
		</g>
	</g><g
         style="fill:#000000"
         id="g636"
         transform="matrix(24.399537,0,0,24.399537,769.16817,308.0992)"><path
           d="M 0,4 A 2,2 0 0 1 2,2 h 12 a 2,2 0 0 1 2,2 V 9 H 0 Z M 11.5,5 A 0.5,0.5 0 0 0 11,5.5 v 1 A 0.5,0.5 0 0 0 11.5,7 h 2 A 0.5,0.5 0 0 0 14,6.5 v -1 A 0.5,0.5 0 0 0 13.5,5 Z M 0,11 v 1 a 2,2 0 0 0 2,2 h 12 a 2,2 0 0 0 2,-2 v -1 z"
           id="path634"
           style="fill:#000000" /></g></g></g></svg>
